<svg width="125" height="36" viewBox="0 0 125 36" fill="none" xmlns="http://www.w3.org/2000/svg">
<g clip-path="url(#clip0_4300_430754)">
<path fill-rule="evenodd" clip-rule="evenodd" d="M34.8376 32.9991C34.4296 32.9991 34.0501 32.9211 33.6991 32.7651C33.3481 32.6091 33.0436 32.3931 32.7856 32.1171L33.1906 31.6581C33.4066 31.8921 33.6586 32.0766 33.9466 32.2116C34.2346 32.3466 34.5346 32.4141 34.8466 32.4141C35.2486 32.4141 35.5651 32.3211 35.7961 32.1351C36.0271 31.9491 36.1426 31.7001 36.1426 31.3881C36.1426 31.1901 36.1006 31.0251 36.0166 30.8931C35.9326 30.7611 35.8246 30.6561 35.6926 30.5781C35.5606 30.5001 35.3746 30.4071 35.1346 30.2991L34.2796 29.9211C33.9316 29.7711 33.6451 29.5791 33.4201 29.3451C33.1951 29.1111 33.0826 28.7991 33.0826 28.4091C33.0826 28.1151 33.1606 27.8511 33.3166 27.6171C33.4726 27.3831 33.6901 27.2001 33.9691 27.0681C34.2481 26.9361 34.5586 26.8701 34.9006 26.8701C35.2426 26.8701 35.5621 26.9361 35.8591 27.0681C36.1561 27.2001 36.4096 27.3771 36.6196 27.5991L36.2596 28.0221C35.8696 27.6441 35.4166 27.4551 34.9006 27.4551C34.5526 27.4551 34.2736 27.5391 34.0636 27.7071C33.8536 27.8751 33.7486 28.0971 33.7486 28.3731C33.7486 28.5591 33.7966 28.7151 33.8926 28.8411C33.9886 28.9671 34.0996 29.0661 34.2256 29.1381C34.3516 29.2101 34.5226 29.2941 34.7386 29.3901L35.5936 29.7681C35.9836 29.9301 36.2851 30.1311 36.4981 30.3711C36.7111 30.6111 36.8176 30.9351 36.8176 31.3431C36.8176 31.6551 36.7366 31.9371 36.5746 32.1891C36.4126 32.4411 36.1816 32.6391 35.8816 32.7831C35.5816 32.9271 35.2336 32.9991 34.8376 32.9991ZM39.5986 32.9991C39.2386 32.9991 38.9056 32.9076 38.5996 32.7246C38.2936 32.5416 38.0491 32.2776 37.8661 31.9326C37.6831 31.5876 37.5916 31.1811 37.5916 30.7131C37.5916 30.2451 37.6831 29.8371 37.8661 29.4891C38.0491 29.1411 38.2936 28.8756 38.5996 28.6926C38.9056 28.5096 39.2386 28.4181 39.5986 28.4181C39.9586 28.4181 40.2916 28.5096 40.5976 28.6926C40.9036 28.8756 41.1481 29.1411 41.3311 29.4891C41.5141 29.8371 41.6056 30.2451 41.6056 30.7131C41.6056 31.1811 41.5141 31.5876 41.3311 31.9326C41.1481 32.2776 40.9036 32.5416 40.5976 32.7246C40.2916 32.9076 39.9586 32.9991 39.5986 32.9991ZM39.5986 32.4501C39.8566 32.4501 40.0861 32.3781 40.2871 32.2341C40.4881 32.0901 40.6456 31.8861 40.7596 31.6221C40.8736 31.3581 40.9306 31.0551 40.9306 30.7131C40.9306 30.3711 40.8736 30.0681 40.7596 29.8041C40.6456 29.5401 40.4881 29.3346 40.2871 29.1876C40.0861 29.0406 39.8566 28.9671 39.5986 28.9671C39.3406 28.9671 39.1111 29.0406 38.9101 29.1876C38.7091 29.3346 38.5531 29.5401 38.4421 29.8041C38.3311 30.0681 38.2756 30.3711 38.2756 30.7131C38.2756 31.2351 38.3986 31.6551 38.6446 31.9731C38.8906 32.2911 39.2086 32.4501 39.5986 32.4501ZM44.1796 26.8971C43.7596 26.8971 43.5496 27.1911 43.5496 27.7791V28.5261H44.4946V29.0661H43.5496V32.8911H42.8926V29.0661H42.2986V28.5711L42.8926 28.5261V27.7701C42.8926 27.3201 42.9961 26.9721 43.2031 26.7261C43.4101 26.4801 43.7176 26.3571 44.1256 26.3571C44.3596 26.3571 44.5936 26.4051 44.8276 26.5011L44.6837 27.0051C44.5156 26.9331 44.3476 26.8971 44.1796 26.8971ZM46.6726 32.9991C46.2406 32.9991 45.9317 32.8761 45.7457 32.6301C45.5596 32.3841 45.4666 32.0331 45.4666 31.5771V29.0661H44.8096V28.5711L45.4936 28.5261L45.5746 27.2931H46.1236V28.5261H47.3206V29.0661H46.1236V31.5951C46.1236 31.8831 46.1761 32.0991 46.2811 32.2431C46.3861 32.3871 46.5646 32.4591 46.8166 32.4591C46.9426 32.4591 47.1106 32.4201 47.3206 32.3421L47.4556 32.8371C47.1316 32.9451 46.8706 32.9991 46.6726 32.9991ZM47.7796 28.5261H48.4546L49.1387 31.1271L49.2197 31.5141C49.3037 31.8741 49.3636 32.1471 49.3997 32.3331H49.4356C49.5497 31.8651 49.6516 31.4631 49.7416 31.1271L50.4437 28.5261H51.1006L51.8116 31.1271L52.1176 32.3331H52.1536L52.4416 31.1271L53.1076 28.5261H53.7377L52.5497 32.8911H51.7397L51.0736 30.4521L50.9026 29.7411C50.8906 29.6931 50.8486 29.5131 50.7766 29.2011H50.7407C50.6086 29.7951 50.5037 30.2181 50.4257 30.4701L49.7776 32.8911H49.0126L47.7796 28.5261ZM55.7086 32.9991C55.3366 32.9991 55.0307 32.8911 54.7907 32.6751C54.5507 32.4591 54.4306 32.1561 54.4306 31.7661C54.4306 31.2921 54.6466 30.9276 55.0787 30.6726C55.5107 30.4176 56.2006 30.2391 57.1487 30.1371C57.1487 29.7951 57.0782 29.5146 56.9372 29.2956C56.7962 29.0766 56.5547 28.9671 56.2127 28.9671C55.7986 28.9671 55.3577 29.1261 54.8897 29.4441L54.6286 28.9941C55.2047 28.6101 55.7686 28.4181 56.3207 28.4181C56.8247 28.4181 57.1966 28.5756 57.4367 28.8906C57.6767 29.2056 57.7966 29.6391 57.7966 30.1911V32.8911H57.2567L57.2027 32.3601H57.1757C56.6596 32.7861 56.1707 32.9991 55.7086 32.9991ZM55.8797 32.4681C56.0897 32.4681 56.2952 32.4186 56.4962 32.3196C56.6972 32.2206 56.9147 32.0661 57.1487 31.8561V30.5781C56.3986 30.6681 55.8662 30.8061 55.5512 30.9921C55.2362 31.1781 55.0787 31.4241 55.0787 31.7301C55.0787 31.9761 55.1537 32.1606 55.3036 32.2836C55.4537 32.4066 55.6457 32.4681 55.8797 32.4681ZM59.2277 28.5261H59.7677L59.8217 29.3271H59.8487C59.9987 29.0451 60.1817 28.8231 60.3977 28.6611C60.6137 28.4991 60.8447 28.4181 61.0907 28.4181C61.2647 28.4181 61.4147 28.4481 61.5407 28.5081L61.4146 29.0841C61.2586 29.0361 61.1207 29.0121 61.0007 29.0121C60.7966 29.0121 60.5942 29.0961 60.3932 29.2641C60.1922 29.4321 60.0197 29.6931 59.8757 30.0471V32.8911H59.2277V28.5261ZM65.6177 30.4611C65.6177 30.6171 65.6087 30.7491 65.5907 30.8571H62.5756C62.6056 31.3671 62.7631 31.7631 63.0482 32.0451C63.3332 32.3271 63.6827 32.4681 64.0967 32.4681C64.4807 32.4681 64.8497 32.3511 65.2037 32.1171L65.4467 32.5491C65.2307 32.6871 65.0087 32.7966 64.7807 32.8776C64.5527 32.9586 64.2977 32.9991 64.0157 32.9991C63.6317 32.9991 63.2822 32.9076 62.9672 32.7246C62.6521 32.5416 62.4032 32.2761 62.2202 31.9281C62.0372 31.5801 61.9457 31.1751 61.9457 30.7131C61.9457 30.2571 62.0372 29.8551 62.2202 29.5071C62.4032 29.1591 62.6447 28.8906 62.9447 28.7016C63.2447 28.5126 63.5627 28.4181 63.8987 28.4181C64.4387 28.4181 64.8601 28.5996 65.1632 28.9626C65.4662 29.3256 65.6177 29.8251 65.6177 30.4611ZM65.0327 30.3801C65.0327 29.9181 64.9337 29.5641 64.7357 29.3181C64.5376 29.0721 64.2617 28.9491 63.9077 28.9491C63.5837 28.9491 63.2957 29.0721 63.0437 29.3181C62.7917 29.5641 62.6417 29.9181 62.5937 30.3801H65.0327ZM67.9667 28.5261H68.6417L69.3257 31.1271L69.4067 31.5141C69.4907 31.8741 69.5507 32.1471 69.5867 32.3331H69.6227C69.7367 31.8651 69.8387 31.4631 69.9287 31.1271L70.6307 28.5261H71.2877L71.9987 31.1271L72.3047 32.3331H72.3407L72.6287 31.1271L73.2947 28.5261H73.9247L72.7367 32.8911H71.9267L71.2607 30.4521L71.0897 29.7411C71.0777 29.6931 71.0357 29.5131 70.9637 29.2011H70.9277C70.7957 29.7951 70.6907 30.2181 70.6127 30.4701L69.9647 32.8911H69.1997L67.9667 28.5261ZM74.9057 28.5261H75.5537V32.8911H74.9057V28.5261ZM75.2387 27.5901C75.1067 27.5901 74.9987 27.5481 74.9147 27.4641C74.8307 27.3801 74.7887 27.2691 74.7887 27.1311C74.7887 26.9991 74.8307 26.8926 74.9147 26.8116C74.9987 26.7306 75.1067 26.6901 75.2387 26.6901C75.3707 26.6901 75.4787 26.7306 75.5627 26.8116C75.6467 26.8926 75.6887 26.9991 75.6887 27.1311C75.6887 27.2691 75.6467 27.3801 75.5627 27.4641C75.4787 27.5481 75.3707 27.5901 75.2387 27.5901ZM78.4067 32.9991C77.9747 32.9991 77.6657 32.8761 77.4797 32.6301C77.2937 32.3841 77.2007 32.0331 77.2007 31.5771V29.0661H76.5437V28.5711L77.2277 28.5261L77.3087 27.2931H77.8577V28.5261H79.0547V29.0661H77.8577V31.5951C77.8577 31.8831 77.9102 32.0991 78.0152 32.2431C78.1202 32.3871 78.2987 32.4591 78.5507 32.4591C78.6767 32.4591 78.8447 32.4201 79.0547 32.3421L79.1897 32.8371C78.8657 32.9451 78.6047 32.9991 78.4067 32.9991ZM80.0627 26.4651H80.7107V28.2471L80.6927 29.1651C80.9327 28.9251 81.1667 28.7406 81.3947 28.6116C81.6227 28.4826 81.8747 28.4181 82.1507 28.4181C82.6067 28.4181 82.9427 28.5606 83.1587 28.8456C83.3747 29.1306 83.4827 29.5551 83.4827 30.1191V32.8911H82.8257V30.2001C82.8257 29.7801 82.7582 29.4741 82.6232 29.2821C82.4882 29.0901 82.2677 28.9941 81.9617 28.9941C81.7457 28.9941 81.5447 29.0496 81.3587 29.1606C81.1727 29.2716 80.9567 29.4501 80.7107 29.6961V32.8911H80.0627V26.4651ZM87.4337 32.9991C87.1877 32.9991 87.0077 32.9226 86.8937 32.7696C86.7797 32.6166 86.7227 32.3901 86.7227 32.0901V26.4651H87.3707V32.1441C87.3707 32.2461 87.3902 32.3226 87.4292 32.3736C87.4682 32.4246 87.5177 32.4501 87.5777 32.4501C87.6257 32.4501 87.6797 32.4441 87.7397 32.4321L87.8297 32.9361C87.7157 32.9781 87.5837 32.9991 87.4337 32.9991ZM92.3027 30.4611C92.3027 30.6171 92.2937 30.7491 92.2757 30.8571H89.2607C89.2907 31.3671 89.4482 31.7631 89.7332 32.0451C90.0182 32.3271 90.3677 32.4681 90.7817 32.4681C91.1657 32.4681 91.5347 32.3511 91.8887 32.1171L92.1317 32.5491C91.9157 32.6871 91.6937 32.7966 91.4657 32.8776C91.2377 32.9586 90.9827 32.9991 90.7007 32.9991C90.3167 32.9991 89.9672 32.9076 89.6522 32.7246C89.3372 32.5416 89.0882 32.2761 88.9052 31.9281C88.7222 31.5801 88.6307 31.1751 88.6307 30.7131C88.6307 30.2571 88.7222 29.8551 88.9052 29.5071C89.0882 29.1591 89.3297 28.8906 89.6297 28.7016C89.9297 28.5126 90.2477 28.4181 90.5837 28.4181C91.1237 28.4181 91.5452 28.5996 91.8482 28.9626C92.1512 29.3256 92.3027 29.8251 92.3027 30.4611ZM91.7177 30.3801C91.7177 29.9181 91.6187 29.5641 91.4207 29.3181C91.2227 29.0721 90.9467 28.9491 90.5927 28.9491C90.2687 28.9491 89.9807 29.0721 89.7287 29.3181C89.4767 29.5641 89.3267 29.9181 89.2787 30.3801H91.7177ZM94.8587 34.9251C94.3127 34.9251 93.8762 34.8201 93.5492 34.6101C93.2222 34.4001 93.0587 34.1121 93.0587 33.7461C93.0587 33.5601 93.1142 33.3801 93.2252 33.2061C93.3362 33.0321 93.4937 32.8761 93.6977 32.7381V32.7021C93.5837 32.6301 93.4907 32.5341 93.4187 32.4141C93.3467 32.2941 93.3107 32.1531 93.3107 31.9911C93.3107 31.8231 93.3572 31.6686 93.4502 31.5276C93.5432 31.3866 93.6557 31.2711 93.7877 31.1811V31.1451C93.6317 31.0191 93.4997 30.8541 93.3917 30.6501C93.2837 30.4461 93.2297 30.2211 93.2297 29.9751C93.2297 29.6691 93.3017 29.3976 93.4457 29.1606C93.5897 28.9236 93.7847 28.7406 94.0307 28.6116C94.2767 28.4826 94.5467 28.4181 94.8407 28.4181C95.0387 28.4181 95.2397 28.4541 95.4437 28.5261H96.9557V29.0391H96.0287C96.1427 29.1471 96.2357 29.2851 96.3077 29.4531C96.3797 29.6211 96.4157 29.7981 96.4157 29.9841C96.4157 30.2841 96.3467 30.5496 96.2087 30.7806C96.0707 31.0116 95.8817 31.1901 95.6417 31.3161C95.4017 31.4421 95.1347 31.5051 94.8407 31.5051C94.6007 31.5051 94.3787 31.4541 94.1747 31.3521C94.0787 31.4301 94.0052 31.5096 93.9542 31.5906C93.9032 31.6716 93.8777 31.7721 93.8777 31.8921C93.8777 32.0481 93.9362 32.1696 94.0532 32.2566C94.1702 32.3436 94.3697 32.3871 94.6517 32.3871H95.5247C96.0347 32.3871 96.4127 32.4711 96.6587 32.6391C96.9047 32.8071 97.0277 33.0681 97.0277 33.4221C97.0277 33.6861 96.9377 33.9336 96.7577 34.1646C96.5777 34.3956 96.3227 34.5801 95.9927 34.7181C95.6627 34.8561 95.2847 34.9251 94.8587 34.9251ZM94.8407 31.0551C95.1107 31.0551 95.3402 30.9546 95.5292 30.7536C95.7182 30.5526 95.8127 30.2931 95.8127 29.9751C95.8127 29.6511 95.7197 29.3916 95.5337 29.1966C95.3477 29.0016 95.1167 28.9041 94.8407 28.9041C94.5647 28.9041 94.3322 29.0016 94.1432 29.1966C93.9542 29.3916 93.8597 29.6511 93.8597 29.9751C93.8597 30.2931 93.9542 30.5526 94.1432 30.7536C94.3322 30.9546 94.5647 31.0551 94.8407 31.0551ZM94.9487 34.4571C95.2247 34.4571 95.4722 34.4136 95.6912 34.3266C95.9102 34.2396 96.0797 34.1226 96.1997 33.9756C96.3197 33.8286 96.3797 33.6741 96.3797 33.5121C96.3797 33.3081 96.3047 33.1626 96.1547 33.0756C96.0047 32.9886 95.7767 32.9451 95.4707 32.9451H94.6697C94.4837 32.9451 94.2977 32.9211 94.1117 32.8731C93.7937 33.0951 93.6347 33.3561 93.6347 33.6561C93.6347 33.9021 93.7517 34.0971 93.9857 34.2411C94.2197 34.3851 94.5407 34.4571 94.9487 34.4571ZM99.0167 32.9991C98.7167 32.9991 98.4257 32.9436 98.1437 32.8326C97.8617 32.7216 97.6127 32.5761 97.3967 32.3961L97.7297 31.9551C97.9457 32.1291 98.1557 32.2611 98.3597 32.3511C98.5637 32.4411 98.7917 32.4861 99.0437 32.4861C99.3317 32.4861 99.5537 32.4171 99.7097 32.2791C99.8657 32.1411 99.9437 31.9671 99.9437 31.7571C99.9437 31.5471 99.8552 31.3791 99.6782 31.2531C99.5012 31.1271 99.2507 31.0071 98.9267 30.8931C98.5127 30.7431 98.1887 30.5796 97.9547 30.4026C97.7207 30.2256 97.6037 29.9721 97.6037 29.6421C97.6037 29.2881 97.7372 28.9956 98.0042 28.7646C98.2712 28.5336 98.6327 28.4181 99.0887 28.4181C99.3347 28.4181 99.5717 28.4631 99.7997 28.5531C100.028 28.6431 100.232 28.7601 100.412 28.9041L100.097 29.3271C99.9227 29.2011 99.7577 29.1051 99.6017 29.0391C99.4457 28.9731 99.2747 28.9401 99.0887 28.9401C98.8127 28.9401 98.6027 29.0046 98.4587 29.1336C98.3147 29.2626 98.2427 29.4201 98.2427 29.6061C98.2427 29.7381 98.2862 29.8521 98.3732 29.9481C98.4602 30.0441 98.5667 30.1206 98.6927 30.1776C98.8187 30.2346 98.9957 30.3081 99.2237 30.3981C99.5297 30.5121 99.7697 30.6141 99.9437 30.7041C100.118 30.7941 100.268 30.9216 100.394 31.0866C100.52 31.2516 100.583 31.4631 100.583 31.7211C100.583 31.9551 100.521 32.1696 100.398 32.3646C100.275 32.5596 100.095 32.7141 99.8582 32.8281C99.6212 32.9421 99.3407 32.9991 99.0167 32.9991Z" fill="#666666"/>
<path fill-rule="evenodd" clip-rule="evenodd" d="M39.4365 18.12C39.6777 18.12 39.8759 18.1943 40.031 18.3429C40.186 18.4914 40.2636 18.6857 40.2636 18.9257C40.2636 19.1543 40.186 19.3429 40.031 19.4914C39.8759 19.64 39.6777 19.7143 39.4365 19.7143H33.6127C33.3715 19.7143 33.1733 19.6343 33.0183 19.4743C32.8632 19.3143 32.7856 19.12 32.7856 18.8914V8.53714C32.7856 8.30857 32.8661 8.11429 33.0269 7.95429C33.1877 7.79429 33.3944 7.71429 33.6472 7.71429C33.8769 7.71429 34.075 7.79429 34.2416 7.95429C34.4082 8.11429 34.4914 8.30857 34.4914 8.53714V18.12H39.4365ZM48.7753 10.7314C49.0165 10.7314 49.2147 10.8114 49.3697 10.9714C49.5248 11.1314 49.6023 11.3257 49.6023 11.5543V16.1143C49.6023 17.3029 49.2721 18.2257 48.6116 18.8829C47.9511 19.54 47.0178 19.8686 45.8117 19.8686C44.6171 19.8686 43.6924 19.54 43.0376 18.8829C42.3829 18.2257 42.0555 17.3029 42.0555 16.1143V11.5543C42.0555 11.3257 42.133 11.1314 42.2881 10.9714C42.4432 10.8114 42.6356 10.7314 42.8653 10.7314C43.1066 10.7314 43.3047 10.8114 43.4598 10.9714C43.6148 11.1314 43.6924 11.3257 43.6924 11.5543V16.1143C43.6924 17.6114 44.3988 18.36 45.8117 18.36C46.5124 18.36 47.0465 18.1714 47.4141 17.7943C47.7817 17.4171 47.9655 16.8571 47.9655 16.1143V11.5543C47.9655 11.3257 48.043 11.1314 48.1981 10.9714C48.3532 10.8114 48.5456 10.7314 48.7753 10.7314ZM56.6495 10.5257C58.7171 10.5257 59.7509 11.76 59.7509 14.2286V18.8914C59.7509 19.12 59.6734 19.3143 59.5183 19.4743C59.3633 19.6343 59.1651 19.7143 58.9239 19.7143C58.6942 19.7143 58.5018 19.6343 58.3467 19.4743C58.1916 19.3143 58.1141 19.12 58.1141 18.8914V14.2457C58.1141 13.5714 57.959 13.0343 57.6489 12.6343C57.3387 12.2343 56.8333 12.0343 56.1326 12.0343C55.6731 12.0343 55.2567 12.1343 54.8834 12.3343C54.5101 12.5343 54.2172 12.8029 54.0047 13.14C53.7922 13.4771 53.6859 13.8457 53.6859 14.2457V18.8914C53.6859 19.12 53.6084 19.3143 53.4533 19.4743C53.2982 19.6343 53.1001 19.7143 52.8589 19.7143C52.6176 19.7143 52.4224 19.6371 52.273 19.4829C52.1237 19.3286 52.049 19.1314 52.049 18.8914V11.5543C52.049 11.3257 52.1266 11.1314 52.2816 10.9714C52.4367 10.8114 52.6291 10.7314 52.8589 10.7314C53.1001 10.7314 53.2982 10.8114 53.4533 10.9714C53.6084 11.1314 53.6859 11.3257 53.6859 11.5543V12.1543C53.9846 11.6971 54.401 11.3114 54.9351 10.9971C55.4692 10.6829 56.0407 10.5257 56.6495 10.5257ZM69.5205 10.6114C69.7617 10.6114 69.9599 10.6886 70.1149 10.8429C70.27 10.9971 70.3475 11.2 70.3475 11.4514V18.8914C70.3475 19.12 70.27 19.3143 70.1149 19.4743C69.9599 19.6343 69.7617 19.7143 69.5205 19.7143C69.2793 19.7143 69.084 19.6371 68.9347 19.4829C68.7853 19.3286 68.7107 19.1314 68.7107 18.8914V18.4457C68.412 18.8457 68.0042 19.1857 67.4873 19.4657C66.9704 19.7457 66.4133 19.8857 65.816 19.8857C65.0349 19.8857 64.3256 19.6857 63.6881 19.2857C63.0505 18.8857 62.5509 18.3286 62.189 17.6143C61.8272 16.9 61.6463 16.0971 61.6463 15.2057C61.6463 14.3143 61.8272 13.5114 62.189 12.7971C62.5509 12.0829 63.0477 11.5257 63.6794 11.1257C64.3112 10.7257 65.0062 10.5257 65.7643 10.5257C66.3731 10.5257 66.9388 10.6514 67.4615 10.9029C67.9841 11.1543 68.4005 11.4743 68.7107 11.8629V11.4514C68.7107 11.2114 68.7853 11.0114 68.9347 10.8514C69.084 10.6914 69.2793 10.6114 69.5205 10.6114ZM66.0055 18.3771C66.5454 18.3771 67.025 18.24 67.4442 17.9657C67.8635 17.6914 68.1909 17.3143 68.4264 16.8343C68.6618 16.3543 68.7796 15.8114 68.7796 15.2057C68.7796 14.6114 68.6618 14.0743 68.4264 13.5943C68.1909 13.1143 67.8635 12.7343 67.4442 12.4543C67.025 12.1743 66.5454 12.0343 66.0055 12.0343C65.4656 12.0343 64.9861 12.1714 64.5668 12.4457C64.1475 12.72 63.8202 13.0971 63.5847 13.5771C63.3492 14.0571 63.2315 14.6 63.2315 15.2057C63.2315 15.8114 63.3492 16.3543 63.5847 16.8343C63.8202 17.3143 64.1475 17.6914 64.5668 17.9657C64.9861 18.24 65.4656 18.3771 66.0055 18.3771ZM77.2741 10.5257C77.5728 10.5257 77.8312 10.6029 78.0494 10.7571C78.2677 10.9114 78.3768 11.1029 78.3768 11.3314C78.3768 11.6057 78.305 11.8143 78.1614 11.9571C78.0179 12.1 77.8427 12.1714 77.6359 12.1714C77.5325 12.1714 77.3775 12.1371 77.1707 12.0686C76.9295 11.9886 76.74 11.9486 76.6021 11.9486C76.246 11.9486 75.8985 12.0714 75.5597 12.3171C75.2208 12.5629 74.9451 12.9 74.7326 13.3286C74.5201 13.7571 74.4139 14.2343 74.4139 14.76V18.8914C74.4139 19.12 74.3363 19.3143 74.1813 19.4743C74.0262 19.6343 73.828 19.7143 73.5868 19.7143C73.3456 19.7143 73.1503 19.6371 73.001 19.4829C72.8517 19.3286 72.777 19.1314 72.777 18.8914V11.5543C72.777 11.3257 72.8545 11.1314 73.0096 10.9714C73.1647 10.8114 73.3571 10.7314 73.5868 10.7314C73.828 10.7314 74.0262 10.8114 74.1813 10.9714C74.3363 11.1314 74.4139 11.3257 74.4139 11.5543V12.4286C74.6666 11.8686 75.0456 11.4143 75.5511 11.0657C76.0565 10.7171 76.6308 10.5371 77.2741 10.5257ZM84.4246 10.5771C85.2057 10.5771 85.9122 10.7743 86.5439 11.1686C87.1757 11.5629 87.6725 12.1143 88.0344 12.8229C88.3962 13.5314 88.5771 14.3314 88.5771 15.2229C88.5771 16.1143 88.3962 16.9114 88.0344 17.6143C87.6725 18.3171 87.1757 18.8686 86.5439 19.2686C85.9122 19.6686 85.2172 19.8686 84.4591 19.8686C83.8618 19.8686 83.3047 19.7371 82.7878 19.4743C82.2709 19.2114 81.8516 18.8914 81.53 18.5143V22.32C81.53 22.5486 81.4524 22.7429 81.2973 22.9029C81.1423 23.0629 80.9441 23.1429 80.7029 23.1429C80.4732 23.1429 80.2808 23.0657 80.1257 22.9114C79.9706 22.7571 79.8931 22.56 79.8931 22.32V11.5371C79.8931 11.2971 79.9677 11.0971 80.1171 10.9371C80.2664 10.7771 80.4617 10.6971 80.7029 10.6971C80.9441 10.6971 81.1423 10.7771 81.2973 10.9371C81.4524 11.0971 81.53 11.2971 81.53 11.5371V12.0343C81.8056 11.6343 82.2077 11.2914 82.7361 11.0057C83.2645 10.72 83.8273 10.5771 84.4246 10.5771ZM84.2351 18.36C84.7635 18.36 85.2402 18.2229 85.6652 17.9486C86.0902 17.6743 86.4205 17.3 86.656 16.8257C86.8914 16.3514 87.0092 15.8171 87.0092 15.2229C87.0092 14.6286 86.8914 14.0943 86.656 13.62C86.4205 13.1457 86.0902 12.7714 85.6652 12.4971C85.2402 12.2229 84.7635 12.0857 84.2351 12.0857C83.6952 12.0857 83.2128 12.22 82.7878 12.4886C82.3627 12.7571 82.0325 13.1314 81.797 13.6114C81.5615 14.0914 81.4438 14.6286 81.4438 15.2229C81.4438 15.8171 81.5615 16.3543 81.797 16.8343C82.0325 17.3143 82.3627 17.6886 82.7878 17.9571C83.2128 18.2257 83.6952 18.36 84.2351 18.36ZM97.7953 10.6114C98.0365 10.6114 98.2347 10.6886 98.3897 10.8429C98.5448 10.9971 98.6223 11.2 98.6223 11.4514V18.8914C98.6223 19.12 98.5448 19.3143 98.3897 19.4743C98.2347 19.6343 98.0365 19.7143 97.7953 19.7143C97.5541 19.7143 97.3588 19.6371 97.2095 19.4829C97.0601 19.3286 96.9855 19.1314 96.9855 18.8914V18.4457C96.6868 18.8457 96.279 19.1857 95.7621 19.4657C95.2452 19.7457 94.6881 19.8857 94.0908 19.8857C93.3097 19.8857 92.6004 19.6857 91.9629 19.2857C91.3253 18.8857 90.8257 18.3286 90.4638 17.6143C90.102 16.9 89.9211 16.0971 89.9211 15.2057C89.9211 14.3143 90.102 13.5114 90.4638 12.7971C90.8257 12.0829 91.3225 11.5257 91.9542 11.1257C92.586 10.7257 93.281 10.5257 94.0391 10.5257C94.6479 10.5257 95.2136 10.6514 95.7363 10.9029C96.2589 11.1543 96.6753 11.4743 96.9855 11.8629V11.4514C96.9855 11.2114 97.0601 11.0114 97.2095 10.8514C97.3588 10.6914 97.5541 10.6114 97.7953 10.6114ZM94.2803 18.3771C94.8202 18.3771 95.2998 18.24 95.719 17.9657C96.1383 17.6914 96.4657 17.3143 96.7012 16.8343C96.9366 16.3543 97.0544 15.8114 97.0544 15.2057C97.0544 14.6114 96.9366 14.0743 96.7012 13.5943C96.4657 13.1143 96.1383 12.7343 95.719 12.4543C95.2998 12.1743 94.8202 12.0343 94.2803 12.0343C93.7404 12.0343 93.2609 12.1714 92.8416 12.4457C92.4223 12.72 92.095 13.0971 91.8595 13.5771C91.624 14.0571 91.5063 14.6 91.5063 15.2057C91.5063 15.8114 91.624 16.3543 91.8595 16.8343C92.095 17.3143 92.4223 17.6914 92.8416 17.9657C93.2609 18.24 93.7404 18.3771 94.2803 18.3771ZM105.652 10.5257C107.72 10.5257 108.754 11.76 108.754 14.2286V18.8914C108.754 19.12 108.676 19.3143 108.521 19.4743C108.366 19.6343 108.168 19.7143 107.927 19.7143C107.697 19.7143 107.505 19.6343 107.349 19.4743C107.194 19.3143 107.117 19.12 107.117 18.8914V14.2457C107.117 13.5714 106.962 13.0343 106.652 12.6343C106.341 12.2343 105.836 12.0343 105.135 12.0343C104.676 12.0343 104.259 12.1343 103.886 12.3343C103.513 12.5343 103.22 12.8029 103.007 13.14C102.795 13.4771 102.689 13.8457 102.689 14.2457V18.8914C102.689 19.12 102.611 19.3143 102.456 19.4743C102.301 19.6343 102.103 19.7143 101.862 19.7143C101.62 19.7143 101.425 19.6371 101.276 19.4829C101.126 19.3286 101.052 19.1314 101.052 18.8914V11.5543C101.052 11.3257 101.129 11.1314 101.284 10.9714C101.439 10.8114 101.632 10.7314 101.862 10.7314C102.103 10.7314 102.301 10.8114 102.456 10.9714C102.611 11.1314 102.689 11.3257 102.689 11.5543V12.1543C102.987 11.6971 103.404 11.3114 103.938 10.9971C104.472 10.6829 105.043 10.5257 105.652 10.5257ZM113.647 12.3257V17.4343C113.647 18.0057 113.906 18.2914 114.422 18.2914C114.503 18.2914 114.612 18.2714 114.75 18.2314C114.888 18.1914 114.997 18.1714 115.077 18.1714C115.227 18.1714 115.353 18.2343 115.456 18.36C115.56 18.4857 115.611 18.6457 115.611 18.84C115.611 19.08 115.473 19.2857 115.198 19.4571C114.922 19.6286 114.612 19.7143 114.267 19.7143C113.888 19.7143 113.541 19.6743 113.225 19.5943C112.909 19.5143 112.628 19.3114 112.381 18.9857C112.134 18.66 112.01 18.1657 112.01 17.5029V12.3257H111.011C110.793 12.3257 110.612 12.2543 110.468 12.1114C110.325 11.9686 110.253 11.7886 110.253 11.5714C110.253 11.3543 110.325 11.1771 110.468 11.04C110.612 10.9029 110.793 10.8343 111.011 10.8343H112.01V9.39429C112.01 9.16571 112.088 8.97143 112.243 8.81143C112.398 8.65143 112.596 8.57143 112.837 8.57143C113.067 8.57143 113.259 8.65143 113.414 8.81143C113.57 8.97143 113.647 9.16571 113.647 9.39429V10.8343H115.077C115.295 10.8343 115.476 10.9057 115.62 11.0486C115.764 11.1914 115.835 11.3714 115.835 11.5886C115.835 11.8057 115.764 11.9829 115.62 12.12C115.476 12.2571 115.295 12.3257 115.077 12.3257H113.647ZM117.231 18.3086C117.128 18.1486 117.076 17.9943 117.076 17.8457C117.076 17.6171 117.197 17.4229 117.438 17.2629C117.553 17.1829 117.685 17.1429 117.834 17.1429C118.041 17.1429 118.23 17.2286 118.403 17.4C118.747 17.7886 119.118 18.08 119.514 18.2743C119.91 18.4686 120.384 18.5657 120.935 18.5657C121.372 18.5543 121.757 18.4543 122.09 18.2657C122.423 18.0771 122.59 17.7714 122.59 17.3486C122.59 16.96 122.42 16.6629 122.081 16.4571C121.742 16.2514 121.246 16.0629 120.591 15.8914C119.948 15.72 119.413 15.54 118.988 15.3514C118.563 15.1629 118.204 14.8886 117.912 14.5286C117.619 14.1686 117.472 13.6971 117.472 13.1143C117.472 12.6 117.619 12.1486 117.912 11.76C118.204 11.3714 118.595 11.0686 119.083 10.8514C119.571 10.6343 120.103 10.5257 120.677 10.5257C121.228 10.5257 121.777 10.6286 122.323 10.8343C122.868 11.04 123.313 11.3543 123.658 11.7771C123.796 11.9371 123.865 12.1029 123.865 12.2743C123.865 12.4571 123.773 12.6343 123.589 12.8057C123.474 12.9086 123.33 12.96 123.158 12.96C122.951 12.96 122.785 12.8914 122.659 12.7543C122.417 12.48 122.121 12.2686 121.771 12.12C121.421 11.9714 121.033 11.8971 120.608 11.8971C120.172 11.8971 119.801 11.9857 119.497 12.1629C119.192 12.34 119.04 12.64 119.04 13.0629C119.052 13.4629 119.227 13.76 119.566 13.9543C119.905 14.1486 120.424 14.3371 121.125 14.52C121.734 14.68 122.239 14.8514 122.641 15.0343C123.043 15.2171 123.382 15.4886 123.658 15.8486C123.934 16.2086 124.071 16.68 124.071 17.2629C124.071 17.8 123.916 18.2657 123.606 18.66C123.296 19.0543 122.891 19.3571 122.391 19.5686C121.892 19.78 121.36 19.8857 120.798 19.8857C120.074 19.8857 119.405 19.76 118.79 19.5086C118.176 19.2571 117.656 18.8571 117.231 18.3086Z" fill="#333333"/>
<path fill-rule="evenodd" clip-rule="evenodd" d="M22.2964 22.4215C21.9614 22.4215 21.6743 22.1315 21.6743 21.7933C21.6743 21.455 21.9614 21.1651 22.2964 21.1651C22.6313 21.1651 22.9184 21.455 22.9184 21.7933C22.9184 22.1315 22.6313 22.4215 22.2964 22.4215ZM18.5165 27.302C17.7988 27.302 17.2725 26.7217 17.2725 26.0456C17.2725 25.3691 17.8466 24.7893 18.5165 24.7893C19.2342 24.7893 19.7605 25.3691 19.7605 26.0456C19.7605 26.7217 19.2342 27.302 18.5165 27.302ZM14.2103 32.0859C13.8754 32.0859 13.5883 31.7955 13.5883 31.4577C13.5883 31.1195 13.8754 30.829 14.2103 30.829C14.5453 30.829 14.8323 31.1195 14.8323 31.4577C14.8323 31.8443 14.5931 32.0859 14.2103 32.0859ZM14.0668 16.3329C13.7319 16.3329 13.4448 16.043 13.4448 15.7047C13.4448 15.3664 13.7319 15.0765 14.0668 15.0765C14.4017 15.0765 14.6888 15.3664 14.6888 15.7047C14.6888 16.043 14.4017 16.3329 14.0668 16.3329ZM19.1385 15.898C19.4734 15.898 19.7605 16.1879 19.7605 16.5262C19.7605 16.8644 19.4734 17.1544 19.1385 17.1544C18.8036 17.1544 18.5165 16.8644 18.5165 16.5262C18.5165 16.1879 18.8036 15.898 19.1385 15.898ZM13.062 26.4743C12.3443 26.4743 11.729 25.8524 11.729 25.1275C11.729 24.4022 12.3443 23.7808 13.062 23.7808C13.7802 23.7808 14.3955 24.4022 14.3955 25.1275C14.3955 25.9558 13.7802 26.4743 13.062 26.4743ZM5.88509 19.4255C5.88509 17.6859 7.27263 16.2846 8.99509 16.2846C10.7176 16.2846 12.1051 17.6859 12.1051 19.4255C12.1051 21.1651 10.7176 22.5664 8.99509 22.5664C7.27263 22.6148 5.88509 21.1651 5.88509 19.4255ZM7.22478 30.5874C6.88986 30.5874 6.60278 30.298 6.60278 29.9597C6.60278 29.621 6.88986 29.3315 7.22478 29.3315C7.55971 29.3315 7.84678 29.621 7.84678 29.9597C7.84678 30.298 7.55971 30.5874 7.22478 30.5874ZM4.68893 27.2049C3.77985 27.2049 3.06216 26.4801 3.06216 25.5624C3.06216 24.6443 3.77985 23.9195 4.68893 23.9195C5.59801 23.9195 6.3157 24.6443 6.3157 25.5624C6.3157 26.4801 5.59801 27.2049 4.68893 27.2049ZM12.5357 0C12.7749 0 12.9663 0.193289 12.9663 0.434899V10.6792C19.7127 10.8725 25.0714 16.4779 25.0714 23.3396C25.0714 30.3458 19.4734 36 12.5357 36C5.59801 36 0 30.3458 0 23.3396C0 16.4779 5.35878 10.9208 12.1051 10.6792V0.434899C12.1051 0.193289 12.2965 0 12.5357 0ZM21.2439 0.917928C21.508 0.917928 21.7224 1.13441 21.7224 1.40115V2.89914C21.7224 3.16587 21.508 3.38236 21.2439 3.38236H16.9555C16.7311 3.38236 16.5488 3.56646 16.5488 3.7931C16.5488 4.02021 16.7311 4.20383 16.9555 4.20383H21.2439C21.508 4.20383 21.7224 4.42032 21.7224 4.68706V6.18504C21.7224 6.45226 21.508 6.66826 21.2439 6.66826H13.445V0.917928H21.2439Z" fill="#42C6EF"/>
</g>
<defs>
<clipPath id="clip0_4300_430754">
<rect width="124.071" height="36" fill="white"/>
</clipPath>
</defs>
</svg>
